<?xml version="1.0" standalone="no"?>
<!DOCTYPE svg PUBLIC "-//W3C//DTD SVG 20010904//EN"
 "http://www.w3.org/TR/2001/REC-SVG-20010904/DTD/svg10.dtd">
<svg version="1.0" xmlns="http://www.w3.org/2000/svg"
 width="768.000000pt" height="768.000000pt" viewBox="0 0 768.000000 768.000000"
 preserveAspectRatio="xMidYMid meet">
<metadata>
Created by potrace 1.16, written by Peter Selinger 2001-2019
</metadata>
<g transform="translate(0.000000,768.000000) scale(0.100000,-0.100000)"
fill="#000000" stroke="none">
<path d="M3518 6994 c-9 -21 -14 -109 -16 -306 -2 -236 -1 -278 11 -278 13 0
15 48 19 303 2 166 3 304 1 306 -1 2 -8 -9 -15 -25z"/>
<path d="M3800 7001 c0 -5 8 -8 18 -7 15 1 17 -10 18 -89 0 -49 1 -168 2 -263
3 -237 21 -220 24 21 l2 182 6 -185 c3 -102 7 -186 8 -188 1 -2 7 0 12 3 6 4
10 80 10 194 l0 188 -24 -4 c-22 -5 -23 -2 -25 62 -1 44 2 64 9 60 5 -3 10
-21 10 -40 0 -39 8 -65 21 -65 5 0 9 27 9 60 0 48 -4 61 -19 70 -24 12 -81 13
-81 1z"/>
<path d="M3807 6968 c-5 -10 -7 -40 -5 -68 2 -29 -1 -50 -7 -50 -6 0 -10 -88
-10 -242 0 -216 2 -243 16 -246 12 -2 18 6 20 25 8 56 -6 598 -14 581z"/>
<path d="M3678 6801 c-5 -35 -8 -122 -8 -192 0 -79 -4 -129 -10 -129 -6 0 -10
39 -10 98 l-1 97 -19 -24 c-16 -18 -20 -38 -20 -96 0 -89 5 -105 35 -105 42 0
46 16 43 221 -2 147 -5 179 -10 130z"/>
<path d="M2975 6776 c-95 -44 -153 -141 -142 -238 8 -64 50 -135 97 -162 68
-40 203 -16 255 45 45 54 23 85 -39 55 -43 -20 -118 -21 -156 -1 -38 20 -66
61 -74 111 -7 38 -5 43 29 72 28 26 45 32 80 32 24 0 55 -4 68 -9 22 -8 27 -5
51 31 14 22 26 43 26 48 0 13 -77 40 -113 40 -17 0 -55 -11 -82 -24z"/>
<path d="M4618 6759 c-92 -26 -171 -142 -172 -254 -1 -55 3 -69 29 -107 66
-93 183 -120 278 -64 67 39 137 150 110 177 -14 14 -123 51 -137 46 -6 -2 7
-9 29 -16 46 -13 72 -27 63 -36 -3 -3 -36 6 -73 20 -81 30 -101 31 -108 5 -8
-30 13 -47 83 -68 l65 -20 -46 -22 c-77 -38 -159 -8 -197 72 -44 90 13 168
124 168 51 0 120 -32 109 -50 -12 -19 12 -10 31 13 37 43 46 67 33 84 -37 44
-151 71 -221 52z"/>
<path d="M2581 6663 c-32 -14 -33 -16 -28 -57 4 -24 33 -111 67 -193 33 -83
60 -155 60 -161 0 -5 7 -15 15 -22 12 -10 20 -7 45 18 16 17 30 38 30 47 0 9
-31 92 -70 185 -38 93 -70 173 -70 179 0 17 -14 19 -49 4z"/>
<path d="M3986 6658 c-9 -37 -7 -142 5 -200 6 -29 13 -63 15 -76 3 -13 10 -22
17 -19 21 7 27 69 21 195 -6 118 -7 122 -29 122 -15 0 -25 -8 -29 -22z"/>
<path d="M4971 6638 c-5 -13 -4 -75 1 -137 l9 -115 -37 -71 c-31 -61 -35 -76
-27 -101 13 -40 46 -44 70 -8 13 20 14 29 5 32 -14 4 -17 32 -3 32 5 0 11 -6
14 -12 2 -7 13 4 23 25 17 35 40 56 189 166 47 35 60 73 29 85 -16 6 -89 -30
-171 -86 l-43 -29 0 58 c0 44 3 54 11 43 15 -21 5 91 -11 119 -14 28 -48 27
-59 -1z"/>
<path d="M2298 6531 c-153 -80 -172 -96 -164 -134 9 -47 19 -51 70 -34 l46 16
23 -37 c13 -20 50 -83 81 -139 65 -115 81 -125 115 -68 l21 36 -80 134 c-44
73 -80 140 -80 147 0 8 20 24 45 36 53 26 62 41 43 74 l-13 24 -107 -55z"/>
<path d="M5199 6378 c-66 -77 -130 -195 -112 -206 6 -4 15 -20 18 -35 4 -15
13 -27 20 -27 14 0 45 32 45 46 0 27 23 32 51 11 l29 -21 35 34 c19 18 37 31
41 28 3 -4 -11 -44 -31 -89 -36 -78 -37 -83 -19 -96 10 -7 21 -13 26 -13 4 0
8 -11 8 -24 0 -36 14 -40 66 -20 36 13 57 32 95 82 l49 65 0 -136 c0 -75 5
-148 10 -162 l10 -27 27 20 27 20 18 -39 c20 -46 44 -50 97 -18 34 21 34 21
60 1 18 -14 25 -27 23 -46 -1 -14 6 -42 16 -63 11 -21 27 -63 37 -93 26 -81
79 -130 140 -130 40 0 113 39 137 73 29 40 30 126 4 176 -15 28 -16 36 -4 47
12 12 17 12 35 -1 26 -18 53 -75 53 -111 l0 -28 35 34 c29 28 35 41 35 75 0
48 -32 103 -70 122 -34 17 -101 16 -127 -2 -26 -18 -61 -73 -73 -114 -6 -23
-4 -33 8 -45 10 -8 25 -30 35 -48 17 -32 17 -32 0 -9 -10 14 -26 34 -35 45
-17 21 -17 21 -18 -12 0 -37 41 -88 63 -77 6 4 3 -1 -7 -9 -25 -20 -46 -20
-74 0 -23 16 -62 83 -62 107 0 8 -7 20 -15 27 -26 21 -3 131 52 253 20 42 34
80 31 82 -6 6 -65 -14 -138 -48 -71 -33 -248 -107 -255 -107 -15 0 81 136 172
244 39 46 40 56 12 82 -21 19 -21 19 -85 -51 l-63 -70 -1 70 c0 90 -11 175
-21 175 -4 0 -51 -51 -104 -112 -130 -153 -146 -171 -150 -166 -3 2 13 38 35
79 21 41 56 122 78 181 47 128 55 127 -128 16 -34 -21 -63 -38 -64 -38 -1 0
-2 28 -2 63 0 34 -4 70 -10 81 -10 16 -16 12 -65 -46z"/>
<path d="M1920 6291 c-115 -92 -126 -105 -113 -134 15 -33 223 -292 237 -295
13 -3 94 57 154 112 34 32 41 66 17 86 -11 9 -26 5 -75 -26 l-61 -37 -39 38
-38 38 46 32 c36 24 48 39 50 61 5 58 -11 62 -76 16 -55 -39 -60 -40 -74 -24
-33 38 -32 44 23 92 47 42 52 49 40 64 -9 10 -10 16 -2 16 6 0 11 7 11 15 0 8
-3 15 -8 15 -4 0 -45 -31 -92 -69z"/>
<path d="M3600 6135 c-251 -32 -425 -78 -637 -171 -183 -80 -369 -191 -523
-313 -77 -61 -298 -277 -312 -306 -6 -11 10 0 36 25 25 24 46 40 46 36 0 -5
15 11 34 36 19 25 59 62 88 82 29 20 85 62 123 92 364 290 797 453 1270 479
206 12 511 -23 710 -80 521 -149 967 -441 1246 -815 158 -212 237 -362 308
-584 94 -295 126 -511 118 -816 -7 -263 -26 -388 -94 -610 -42 -139 -92 -242
-181 -375 -119 -178 -231 -272 -453 -379 -152 -73 -251 -106 -494 -165 -93
-23 -224 -61 -290 -86 l-120 -44 90 0 c127 -1 312 16 398 35 91 21 228 73 338
130 83 43 225 155 391 309 39 36 75 62 82 58 6 -3 8 -3 4 1 -4 5 11 27 33 49
34 36 156 259 197 362 9 23 10 24 6 5 -3 -14 -6 -29 -8 -35 -1 -5 -29 -64 -61
-130 -32 -66 -59 -122 -59 -125 -3 -14 -57 -98 -70 -110 -9 -7 -16 -17 -16
-22 0 -6 7 -4 17 3 15 13 15 12 2 -8 -7 -13 -16 -18 -20 -12 -5 9 -27 -16 -73
-81 -6 -8 2 -4 17 9 14 13 29 33 33 44 5 15 9 16 17 7 9 -10 9 -14 -1 -17 -6
-3 -10 -9 -6 -14 3 -5 0 -9 -5 -9 -6 0 -11 -6 -11 -14 0 -8 -3 -16 -7 -18 -5
-1 -42 -48 -83 -103 -72 -96 -193 -224 -240 -255 -12 -8 -66 -47 -119 -86
-327 -240 -658 -371 -1111 -439 -58 -9 -113 -18 -123 -21 -17 -5 -37 -37 -57
-89 l-10 -26 63 7 c37 3 72 1 87 -5 22 -10 21 -11 -17 -8 -24 1 -43 -1 -43 -5
0 -4 -21 -8 -47 -10 -44 -3 -49 -6 -65 -38 -25 -51 -22 -82 12 -125 17 -21 30
-31 30 -23 0 11 15 15 65 17 128 4 389 72 560 145 211 91 378 178 499 259 50
34 93 64 96 67 3 3 30 25 60 50 78 63 241 223 276 270 16 22 35 38 42 35 7 -3
10 0 7 5 -5 9 26 64 45 80 11 9 55 75 74 110 10 19 34 56 52 81 19 26 34 52
34 58 0 6 5 11 11 11 5 0 7 4 4 10 -3 5 -27 -21 -52 -58 -25 -37 -60 -85 -78
-107 -63 -77 -217 -228 -291 -285 -57 -44 -171 -127 -184 -135 -27 -15 2 10
105 88 275 208 431 399 595 730 75 151 116 259 104 279 -4 7 -3 10 1 5 10 -9
37 63 30 81 -3 7 -1 11 4 7 12 -7 25 51 15 66 -4 8 -3 9 4 5 8 -5 12 6 14 36
0 24 3 57 5 73 2 17 4 47 5 67 0 21 5 35 10 32 6 -4 7 12 3 40 -5 31 -4 46 4
46 6 0 11 14 11 31 0 20 -4 28 -11 23 -9 -5 -10 2 -5 22 3 16 9 103 12 194 17
466 -114 969 -347 1325 -74 114 -224 298 -310 381 -305 292 -740 524 -1149
612 -255 55 -550 73 -760 47z"/>
<path d="M1637 6054 c-32 -38 -29 -49 29 -113 l33 -38 -41 -41 -41 -42 -26 22
c-14 13 -41 36 -58 52 -18 16 -34 28 -36 25 -40 -51 -48 -71 -35 -87 29 -37
268 -272 276 -272 5 0 21 19 36 42 l28 42 -66 63 c-36 35 -66 65 -66 68 0 2
20 20 44 40 l45 36 33 -28 c18 -15 48 -43 67 -61 37 -36 60 -38 76 -5 6 11 17
28 25 37 12 15 8 22 -31 63 -39 40 -209 190 -249 219 -12 9 -21 4 -43 -22z"/>
<path d="M3614 6000 c-402 -39 -801 -203 -1124 -460 -215 -172 -417 -412 -539
-642 -42 -79 -141 -299 -141 -314 0 -2 6 -4 13 -4 15 0 39 58 30 74 -3 6 -2 8
2 3 5 -4 34 42 65 101 104 200 265 410 405 528 69 59 270 193 366 246 103 56
223 107 364 153 151 49 189 58 345 85 104 18 320 28 320 15 0 -3 -9 -23 -20
-45 -11 -22 -20 -43 -20 -47 1 -13 40 38 40 52 0 6 11 24 25 39 13 14 23 29
22 33 -1 3 6 7 16 9 9 1 15 -2 11 -7 -3 -5 -2 -9 3 -10 106 -8 315 -43 438
-72 185 -45 277 -75 425 -141 156 -70 214 -103 424 -246 13 -8 52 -41 89 -73
l66 -59 70 11 c38 6 75 11 80 11 20 0 11 -27 -12 -37 -33 -15 -236 -59 -412
-88 -207 -35 -319 -65 -517 -140 -204 -78 -218 -85 -159 -79 25 2 131 33 235
68 105 36 247 77 316 91 69 15 200 44 291 66 91 21 170 39 175 39 6 0 25 -28
44 -62 42 -80 45 -84 105 -150 42 -46 157 -189 175 -219 4 -6 163 35 178 47 7
5 -83 173 -131 244 -352 525 -916 873 -1567 965 -135 19 -379 26 -496 15z"/>
<path d="M1383 5758 c-116 -153 -152 -208 -147 -223 8 -19 43 -19 68 0 11 8
27 15 35 15 18 0 147 -93 204 -147 43 -40 53 -37 82 28 14 30 16 45 8 57 -5
10 -61 53 -123 97 -62 44 -115 87 -117 95 -4 12 -3 12 5 2 7 -10 15 -6 36 18
31 37 33 70 7 94 -17 16 -20 14 -58 -36z"/>
<path d="M3751 5733 c-8 -32 -10 -90 -5 -182 6 -132 6 -139 -24 -246 -55 -192
-74 -285 -67 -324 3 -20 1 -59 -5 -86 -15 -69 -76 -217 -118 -292 l-36 -63
-34 101 c-19 55 -31 103 -28 106 4 4 22 -9 41 -27 31 -30 37 -32 50 -19 20 19
55 121 55 156 0 16 -9 46 -19 69 -22 48 -75 78 -133 75 -57 -3 -87 -3 -158 5
-56 5 -73 3 -113 -16 -67 -31 -102 -92 -94 -160 5 -39 1 -58 -18 -96 l-24 -47
24 -28 c13 -16 26 -43 30 -61 14 -63 36 -70 135 -44 30 8 58 11 62 8 14 -13
35 -139 27 -155 -5 -8 -30 -29 -57 -46 -52 -33 -144 -137 -179 -203 -38 -68
-28 -123 32 -190 26 -28 35 -47 35 -72 0 -55 37 -158 81 -227 96 -148 253
-312 395 -413 45 -32 87 -69 93 -83 6 -13 23 -102 36 -196 14 -95 46 -257 70
-362 59 -246 66 -352 37 -585 -11 -91 -23 -210 -27 -265 -9 -139 -25 -202
-105 -401 -88 -218 -121 -329 -123 -419 l-2 -70 31 -3 c34 -3 63 25 177 166
31 40 84 93 117 118 84 66 92 95 54 212 -19 58 -9 96 79 297 133 306 140 329
141 430 0 50 -8 144 -18 210 -23 148 -18 223 26 388 l33 122 -2 242 -2 241 35
6 c39 8 164 72 244 126 68 46 145 121 237 232 80 96 128 137 260 227 74 50
109 83 175 164 45 56 125 145 179 198 85 85 110 103 201 147 95 46 105 54 125
95 12 25 34 53 49 64 68 46 121 124 108 158 -15 38 -53 30 -210 -49 -143 -71
-156 -80 -198 -135 -55 -71 -131 -123 -326 -226 -217 -114 -265 -155 -328
-281 -40 -80 -83 -107 -299 -188 -92 -35 -196 -78 -231 -95 l-62 -31 -52 29
c-114 64 -233 64 -372 1 -78 -36 -95 -32 -127 33 -50 98 -32 219 57 386 59
109 101 240 114 354 6 51 15 126 20 167 6 41 10 125 10 185 0 65 6 132 15 165
27 100 11 469 -26 614 -19 73 -44 136 -53 136 -2 0 -9 -21 -15 -47z"/>
<path d="M3477 5444 c-207 -208 -261 -276 -304 -377 l-13 -29 40 7 c21 4 64 1
95 -5 70 -14 76 -10 110 80 42 109 174 283 251 331 57 35 52 13 -9 -42 -92
-81 -185 -213 -212 -299 -8 -24 -6 -23 40 18 8 7 15 11 15 8 0 -3 9 3 20 14
11 11 29 20 39 20 21 0 30 -16 41 -75 6 -31 5 -42 -8 -52 -15 -11 -14 -12 7
-5 21 8 29 26 63 158 21 82 45 182 53 222 22 108 19 242 -6 242 -4 0 -105 -97
-222 -216z"/>
<path d="M6323 5613 c-18 -7 -16 -54 3 -81 21 -30 17 -34 -121 -132 -62 -43
-115 -86 -119 -95 -9 -24 21 -88 36 -79 7 4 58 40 113 79 152 108 158 110 183
64 36 -64 37 -65 66 -46 15 10 24 23 20 29 -4 5 -1 14 6 18 9 6 -2 30 -42 92
-55 85 -115 159 -127 157 -3 0 -12 -3 -18 -6z"/>
<path d="M1129 5388 c-21 -24 -29 -43 -30 -73 -1 -33 -2 -36 -8 -15 l-7 25
-12 -22 c-29 -52 -6 -121 48 -143 42 -17 86 -6 163 40 70 43 86 47 105 28 23
-23 13 -47 -25 -65 -33 -16 -38 -23 -41 -57 -5 -64 2 -70 51 -36 24 16 57 48
72 70 67 96 13 220 -95 220 -40 0 -77 -20 -119 -64 -51 -53 -85 -43 -62 17 12
30 31 36 31 10 0 -13 6 -9 20 12 24 36 25 49 4 69 -25 26 -62 19 -95 -16z"/>
<path d="M6417 5184 c-87 -47 -165 -96 -173 -109 -15 -23 -11 -69 7 -81 5 -3
28 8 52 25 24 16 98 57 164 90 66 33 124 66 131 73 8 10 6 23 -6 51 l-17 37
-158 -86z"/>
<path d="M987 5053 c-39 -94 -47 -143 -23 -143 8 0 49 -18 93 -40 72 -37 210
-86 219 -78 8 9 84 199 84 212 0 14 -45 31 -59 22 -5 -3 -18 -32 -31 -65 l-22
-60 -32 13 c-33 13 -34 16 -23 90 7 46 -2 76 -23 76 -4 0 -19 -27 -33 -60
l-26 -60 -36 17 c-39 19 -39 17 -9 95 20 52 20 54 -17 63 -24 6 -27 2 -62 -82z"/>
<path d="M1768 5037 c-132 -230 -253 -548 -297 -782 -7 -33 -16 -78 -21 -100
-6 -22 -19 -112 -30 -200 -27 -211 -29 -630 -5 -775 21 -119 69 -315 95 -379
25 -63 133 -284 165 -336 14 -22 33 -56 44 -75 55 -100 230 -323 247 -316 8 3
11 -1 8 -9 -3 -8 6 -21 20 -31 22 -14 24 -19 14 -33 -11 -14 -11 -14 3 -4 14
11 24 5 71 -40 30 -28 74 -68 97 -89 23 -20 38 -38 34 -40 -5 -3 -2 -3 4 -2
10 3 146 -90 201 -136 6 -6 12 -7 12 -3 0 4 4 3 8 -3 4 -7 37 -28 74 -49 38
-20 71 -41 74 -46 3 -5 10 -7 15 -4 5 4 9 1 9 -4 0 -6 3 -10 8 -9 4 1 20 -4
35 -10 16 -7 33 -12 38 -12 5 0 17 -4 27 -9 25 -14 239 -106 292 -126 55 -21
207 -53 355 -74 102 -15 173 -39 185 -61 20 -38 11 -107 -28 -210 -3 -8 -5
-18 -4 -21 0 -3 -8 -39 -18 -80 -21 -81 -26 -173 -10 -213 9 -24 15 -26 62
-26 29 1 65 6 80 13 47 21 180 137 174 152 -3 9 0 12 8 9 8 -3 29 19 52 53 21
32 46 67 55 78 23 28 43 95 32 106 -14 14 -94 -60 -162 -150 -81 -107 -133
-151 -174 -151 -49 0 -67 25 -67 91 0 93 37 221 136 473 19 48 33 91 30 94 -3
2 -46 8 -95 13 -102 9 -244 33 -335 55 -213 53 -533 186 -680 283 -22 14 -57
36 -78 48 -133 75 -404 311 -481 418 -12 17 19 -12 68 -63 106 -111 210 -197
360 -297 342 -227 684 -356 1100 -415 74 -10 139 -21 144 -25 12 -7 36 37 45
80 3 17 13 111 21 210 9 99 23 225 32 280 24 156 14 289 -42 515 -25 102 -52
237 -61 300 -33 243 -35 252 -63 280 -15 14 -65 52 -110 84 -210 152 -418 431
-439 591 -6 46 -16 71 -45 108 -20 26 -41 66 -47 89 -10 37 -13 39 -24 22 -7
-11 -24 -47 -39 -80 -34 -77 -37 -172 -7 -260 11 -32 20 -65 20 -73 1 -42 146
-301 224 -399 35 -43 127 -141 161 -172 22 -19 70 -66 107 -103 78 -79 95
-117 127 -287 22 -116 55 -248 71 -285 28 -65 99 -254 104 -275 12 -52 13
-345 1 -357 -14 -13 -40 21 -29 39 4 6 3 8 -3 5 -13 -8 -46 50 -39 68 3 8 0
14 -5 12 -6 -1 -26 19 -44 46 -19 26 -64 73 -101 105 -37 31 -78 67 -91 79
-13 13 -27 23 -31 24 -4 1 -26 12 -50 26 -37 22 -41 28 -30 42 10 13 10 14 -2
4 -18 -16 -34 -17 -24 -1 5 7 3 8 -5 4 -7 -5 -20 -1 -29 6 -28 24 -123 74
-195 102 -38 15 -171 54 -295 87 -253 66 -336 95 -432 147 -127 69 -275 181
-275 208 0 7 -4 16 -9 21 -5 5 -6 2 -1 -7 8 -13 6 -13 -8 -1 -9 7 -14 17 -11
22 3 5 -1 9 -8 9 -18 1 -83 86 -83 110 0 10 -5 23 -9 27 -5 5 -6 2 -1 -7 11
-21 -5 -3 -39 43 -15 20 -31 35 -36 32 -4 -3 -7 6 -6 19 2 18 -1 23 -12 18
-12 -4 -14 0 -9 17 4 16 2 21 -8 17 -15 -5 -29 20 -19 35 3 5 0 8 -7 7 -6 -2
-21 12 -31 29 -23 38 -88 219 -88 244 0 10 -5 21 -10 24 -7 4 -9 -3 -5 -22 13
-58 -15 5 -35 79 -17 67 -19 70 -19 32 -1 -53 40 -197 83 -288 96 -207 295
-464 449 -579 180 -134 300 -187 618 -272 331 -89 374 -107 552 -222 136 -87
255 -181 299 -234 31 -39 108 -177 108 -196 0 -4 -13 13 -28 38 -16 24 -46 60
-68 80 -177 159 -364 205 -664 164 -118 -16 -337 -20 -359 -6 -10 6 0 8 30 5
43 -5 43 -5 19 10 -21 13 -22 15 -6 16 27 0 17 7 -19 14 -16 3 -61 17 -100 31
-38 14 -77 24 -87 22 -10 -3 -16 0 -15 7 1 6 -6 10 -15 10 -10 -1 -16 1 -14 5
3 4 -15 14 -40 23 -24 8 -44 14 -44 13 0 -1 44 -32 98 -67 183 -121 377 -215
437 -211 246 14 416 -4 592 -62 117 -39 168 -68 221 -127 20 -23 43 -48 51
-55 7 -8 12 -16 10 -18 -6 -5 -242 31 -384 60 -317 64 -708 236 -980 432 -35
25 -62 50 -59 55 3 5 0 7 -8 6 -7 -2 -12 2 -11 9 2 7 -3 10 -10 7 -7 -2 -22 4
-32 16 -10 11 -14 20 -9 20 4 0 -20 29 -56 65 -35 35 -68 61 -73 58 -6 -3 -7
-2 -4 3 6 10 -90 139 -103 139 -5 0 -12 4 -17 9 -5 5 -3 6 5 2 19 -11 14 11
-5 26 -10 7 -22 21 -28 30 -5 9 -28 42 -51 75 -151 217 -281 532 -319 773 -34
216 -36 541 -5 760 23 165 78 385 120 485 10 23 21 56 25 75 4 19 14 40 21 48
8 7 12 18 8 23 -3 6 -1 16 5 23 15 17 27 135 13 121 -5 -5 -12 -19 -15 -30 -3
-11 -5 -4 -6 17 -1 31 2 36 17 32 12 -4 13 -3 4 3 -10 8 -7 21 13 62 38 74 26
73 -17 -2z"/>
<path d="M6453 5046 c-142 -66 -175 -287 -60 -395 l25 -23 16 31 c9 17 30 38
46 46 29 15 40 35 20 35 -5 0 -25 16 -45 35 -29 30 -35 43 -35 79 0 32 6 48
24 65 31 29 87 44 119 32 34 -13 73 -68 81 -113 8 -47 19 -53 51 -32 23 15 25
23 25 84 0 82 -24 124 -90 158 -57 28 -112 28 -177 -2z"/>
<path d="M4594 4890 c-98 -14 -400 -89 -509 -127 -55 -19 -128 -44 -163 -55
-49 -16 -66 -26 -73 -46 -14 -36 -5 -56 20 -43 27 15 335 117 407 135 193 49
392 75 587 76 63 0 77 3 77 16 0 8 -8 23 -17 32 -13 14 -39 17 -142 19 -69 0
-154 -3 -187 -7z"/>
<path d="M3006 4816 c-8 -19 -20 -59 -27 -90 -6 -30 -16 -53 -20 -50 -15 9
-44 -110 -43 -176 0 -76 20 -115 97 -191 36 -35 47 -53 43 -66 -4 -10 26 14
67 52 40 39 91 84 111 100 37 29 38 31 31 78 l-8 49 -76 -7 c-76 -7 -78 -6
-109 23 -18 17 -32 40 -32 51 0 12 -11 39 -25 61 -30 48 -30 50 -6 92 16 27
26 108 14 108 -1 0 -9 -15 -17 -34z"/>
<path d="M1045 4745 c-88 -13 -161 -24 -163 -24 -2 -1 -10 -17 -18 -36 -15
-36 -10 -70 7 -44 7 11 9 10 9 -3 0 -9 -4 -20 -10 -23 -5 -3 -10 -15 -10 -25
0 -18 27 -42 159 -139 25 -18 58 -45 73 -58 14 -14 31 -22 37 -18 12 7 51 78
51 92 0 4 -20 21 -45 36 -42 27 -44 30 -31 50 8 12 19 38 25 59 9 26 19 38 38
43 51 13 83 43 83 81 0 41 15 40 -205 9z"/>
<path d="M6481 4594 c-35 -98 -37 -111 -16 -160 25 -61 120 -84 180 -42 62 42
88 101 71 158 -8 24 -7 24 7 5 11 -14 14 -34 10 -72 -5 -42 -3 -53 9 -53 16 0
49 33 67 67 14 28 14 98 -1 126 -27 52 -86 74 -117 45 -11 -11 -12 -10 -5 2
16 29 -40 -15 -63 -50 -25 -36 -30 -92 -10 -108 6 -5 23 -12 37 -14 l25 -3
-26 -18 c-62 -42 -114 27 -107 140 3 54 1 63 -13 63 -11 0 -25 -25 -48 -86z"/>
<path d="M5850 4651 c0 -7 -31 -45 -68 -85 -38 -39 -79 -90 -92 -113 -19 -34
-34 -46 -89 -69 -140 -59 -209 -117 -356 -299 -108 -135 -152 -176 -270 -252
-126 -82 -129 -85 -235 -218 -124 -155 -266 -263 -432 -328 l-58 -22 1 -45 c2
-74 18 -110 38 -83 3 4 32 21 64 37 32 16 82 47 110 70 54 42 173 155 148 141
-8 -4 5 11 27 33 23 23 42 47 42 54 0 6 3 9 6 5 3 -3 19 10 36 29 16 19 35 31
41 27 5 -3 7 -2 4 3 -3 6 28 34 70 64 149 108 244 193 298 265 30 40 66 81
142 165 48 53 183 147 266 186 20 10 37 21 37 26 0 4 6 8 13 8 6 0 23 9 36 19
71 54 179 -86 219 -284 6 -27 16 -107 23 -176 11 -107 10 -143 -3 -245 -18
-137 -39 -234 -68 -310 -11 -30 -18 -54 -16 -54 23 0 146 352 146 416 0 7 5
25 11 41 6 15 13 39 15 53 1 14 6 41 9 60 16 93 16 272 0 401 -20 156 -115
553 -115 480z"/>
<path d="M6792 4137 c-28 -30 -29 -81 -2 -125 27 -44 26 -99 -2 -129 -12 -13
-17 -24 -12 -24 5 -1 20 -3 32 -4 13 -1 33 -11 44 -22 l20 -20 -27 -7 c-20 -5
-31 -2 -41 11 -15 20 -19 6 -4 -17 5 -8 23 -15 39 -15 16 0 27 3 24 8 -2 4 0
7 6 7 13 0 45 60 36 68 -3 3 -24 6 -45 5 -37 -2 -40 0 -40 25 0 21 2 24 10 12
7 -11 10 -12 10 -2 0 7 7 20 15 29 9 8 14 23 11 32 -2 9 -8 45 -11 80 -6 51
-11 64 -26 68 -14 4 -18 11 -14 24 8 25 3 24 -23 -4z"/>
<path d="M847 4119 c-9 -6 -26 -41 -37 -78 -21 -67 -22 -69 -60 -75 -26 -4
-45 -15 -57 -32 -10 -14 -28 -35 -40 -46 -12 -11 -27 -33 -33 -49 -7 -16 -17
-29 -22 -29 -11 0 -68 -118 -68 -141 0 -24 36 -91 71 -129 26 -29 38 -35 73
-35 l41 0 -1 -155 c-1 -85 -2 -204 -4 -265 -4 -229 73 -619 170 -850 7 -16 19
-46 28 -65 44 -105 171 -346 214 -405 16 -22 59 -85 95 -140 36 -55 73 -107
83 -115 9 -8 35 -40 58 -70 61 -83 343 -364 427 -425 22 -15 47 -34 55 -42 40
-35 107 -84 123 -89 9 -4 17 -10 17 -15 0 -5 5 -9 11 -9 6 0 25 -11 43 -25 17
-14 36 -29 41 -33 6 -4 17 -11 25 -15 8 -4 33 -18 55 -30 152 -89 345 -187
366 -187 10 0 19 -4 21 -8 6 -16 269 -106 408 -141 82 -21 314 -62 425 -76
140 -17 530 -20 638 -5 40 6 104 15 142 21 94 13 365 69 390 80 11 5 43 13 70
19 45 10 72 18 130 40 11 4 47 15 80 25 33 10 93 36 134 57 41 21 78 38 83 38
14 0 206 95 268 132 137 82 326 216 425 301 105 91 290 269 325 313 75 95 135
164 143 164 4 0 5 4 2 10 -3 5 -3 10 2 10 4 0 26 27 48 60 22 33 43 60 48 60
4 0 7 6 7 14 0 8 3 16 8 18 11 5 132 175 132 186 0 5 9 17 20 27 11 10 20 26
20 36 0 9 4 19 9 21 5 2 28 39 50 83 23 44 53 100 67 123 26 45 27 72 1 30 -8
-12 -46 -75 -86 -139 -241 -394 -587 -747 -974 -996 -123 -78 -444 -237 -582
-287 -176 -63 -488 -142 -680 -171 -53 -8 -184 -20 -291 -26 -368 -22 -697 18
-1099 134 -272 79 -652 268 -914 456 -248 178 -519 446 -676 671 -69 98 -156
231 -167 255 -6 14 -14 22 -18 20 -4 -2 -7 1 -7 8 0 7 -18 44 -40 82 -98 169
-165 327 -221 524 -80 278 -101 402 -106 645 l-5 181 9 -145 c13 -209 27 -316
65 -469 93 -377 244 -700 489 -1046 205 -289 483 -554 811 -771 316 -211 721
-376 1093 -448 453 -88 888 -83 1327 13 663 146 1194 447 1640 931 97 106 245
298 300 392 119 201 154 264 197 355 50 107 109 254 112 283 1 9 5 20 8 25 23
37 41 161 27 186 -6 12 -6 19 0 19 5 0 11 -4 13 -10 2 -5 4 11 5 36 2 45 -10
50 -20 9 -3 -11 -6 0 -7 25 l-2 45 -15 -58 c-9 -32 -17 -56 -20 -54 -2 3 3 32
11 65 9 33 16 70 16 82 0 13 4 19 12 14 7 -4 8 -3 4 4 -4 7 -4 33 0 59 6 39 9
44 16 28 6 -15 7 -14 3 8 -3 15 -1 65 5 110 16 118 26 322 19 351 -6 20 -3 27
12 31 10 4 19 11 19 17 0 7 -5 6 -15 -2 -8 -6 -23 -9 -35 -5 -15 5 -29 0 -44
-14 -19 -18 -25 -19 -35 -8 -9 11 -7 20 9 40 23 28 26 63 8 70 -10 3 -10 7 1
20 7 9 18 14 25 10 6 -3 7 -2 3 3 -5 5 -20 9 -35 9 -20 0 -27 6 -34 33 -5 18
-15 32 -24 32 -21 0 -29 -27 -14 -46 17 -20 4 -32 -40 -36 l-35 -4 26 -13 c19
-9 32 -10 45 -3 29 16 57 -3 44 -29 -9 -16 -14 -17 -33 -8 -18 9 -17 7 6 -15
29 -29 35 -46 15 -46 -8 0 -5 -7 6 -15 14 -11 16 -15 5 -15 -25 0 -42 17 -37
37 4 14 -3 23 -24 32 -42 19 -86 67 -90 99 -6 52 -32 31 -51 -42 -22 -82 -17
-110 22 -124 16 -6 41 -29 58 -54 34 -51 83 -72 134 -58 18 5 35 7 38 4 11
-11 13 -139 2 -265 -19 -223 -90 -533 -172 -743 -21 -55 -37 -101 -35 -103 7
-7 69 143 139 337 3 8 6 10 6 4 1 -14 -61 -194 -97 -280 -45 -107 -63 -139
-71 -125 -5 7 -8 0 -8 -16 0 -16 -25 -71 -56 -126 -32 -54 -57 -102 -57 -107
0 -6 -3 -10 -8 -10 -4 0 -16 -17 -27 -37 -11 -21 -26 -44 -33 -52 -8 -8 -25
-33 -39 -55 -64 -102 -346 -404 -497 -531 -268 -227 -640 -429 -981 -533 -361
-111 -634 -152 -1015 -152 -511 0 -907 86 -1326 289 -577 280 -1021 690 -1333
1234 -167 289 -303 671 -345 967 -15 104 -24 415 -13 426 7 7 15 -26 19 -76 3
-33 6 -35 40 -38 32 -3 45 3 89 40 50 43 103 125 105 163 1 11 5 28 9 38 11
26 -19 85 -50 99 -18 8 -25 19 -25 38 0 32 -28 60 -59 60 -37 0 -37 -28 0 -60
19 -16 29 -29 23 -30 -6 0 -17 7 -24 15 -7 8 -28 17 -47 21 -30 6 -34 10 -30
30 2 13 0 25 -5 26 -5 2 -5 30 1 68 6 36 11 72 11 81 0 21 -21 30 -43 18z"/>
<path d="M6915 3674 c1 -14 7 -30 12 -35 6 -6 8 -31 5 -58 -4 -50 15 -85 44
-79 7 2 38 37 68 78 58 77 71 120 38 120 -29 0 -43 -20 -31 -43 17 -30 -5 -45
-31 -22 -11 10 -20 24 -20 32 0 17 -10 17 -32 -4 -15 -14 -21 -14 -31 -3 -9
10 -9 11 1 5 11 -6 11 -3 0 14 -17 28 -27 26 -23 -5z"/>
<path d="M1691 3094 c-2 -23 57 -155 114 -256 73 -128 123 -204 193 -290 50
-62 64 -73 181 -132 341 -173 598 -251 910 -275 180 -15 185 -14 121 13 -30
13 -89 38 -130 55 -80 34 -235 84 -395 126 -135 36 -210 63 -342 124 -224 104
-346 183 -414 270 -74 94 -183 263 -221 341 -9 19 -17 30 -17 24z"/>
<path d="M5769 2928 c-118 -155 -279 -286 -459 -374 -77 -37 -214 -82 -397
-130 -182 -47 -327 -95 -404 -134 -60 -31 -197 -122 -235 -157 -29 -26 -80
-93 -71 -93 2 0 25 21 51 46 77 73 207 152 323 196 59 22 195 62 303 89 107
27 236 63 286 79 191 64 350 165 491 314 80 84 182 221 171 231 -2 3 -29 -28
-59 -67z"/>
<path d="M5180 2053 c-105 -46 -184 -52 -427 -28 -227 21 -285 7 -507 -124
-49 -29 -84 -57 -93 -76 l-16 -30 34 26 c30 23 96 52 124 55 6 0 46 4 90 9 44
4 175 8 290 9 l210 1 76 32 c76 31 195 94 240 125 29 21 24 21 -21 1z"/>
<path d="M5823 2044 c-8 -22 4 -87 40 -206 18 -61 37 -108 44 -108 16 0 43 52
43 82 0 18 13 30 55 53 56 30 65 39 43 48 -10 4 -10 6 0 6 23 2 66 40 51 45
-120 39 -215 64 -222 59 -6 -3 -8 -2 -4 3 3 5 -6 15 -19 21 -21 9 -26 9 -31
-3z"/>
<path d="M1818 1938 c-82 -85 -105 -115 -97 -125 9 -10 16 -10 38 2 28 14 118
106 167 170 24 31 27 65 7 65 -5 0 -56 -50 -115 -112z"/>
<path d="M1964 1909 c-17 -35 -46 -104 -63 -152 -26 -70 -30 -91 -21 -102 7
-8 18 -15 24 -15 17 0 224 93 266 119 l35 22 -45 -7 c-25 -4 -72 -17 -104 -30
-67 -27 -83 -30 -46 -9 14 8 21 14 16 15 -5 0 -25 -10 -44 -22 -41 -25 -42
-34 8 106 20 55 29 91 22 95 -5 3 -11 15 -13 25 -3 14 -13 0 -35 -45z"/>
<path d="M5600 1890 c-11 -28 -10 -34 12 -65 13 -19 44 -55 67 -81 34 -36 45
-55 49 -90 2 -24 7 -44 10 -44 11 0 72 70 72 84 0 8 -40 57 -90 110 -49 52
-90 100 -90 106 0 21 -18 9 -30 -20z"/>
<path d="M5417 1730 c-29 -23 -35 -57 -14 -80 6 -8 2 -6 -10 4 -18 15 -23 16
-24 5 -1 -8 -4 -3 -8 11 -7 23 -9 22 -20 -19 -14 -49 -7 -86 10 -61 8 12 10
10 6 -8 -4 -18 1 -27 26 -42 18 -10 37 -23 43 -29 7 -5 14 -8 16 -6 2 2 5 -14
5 -37 1 -23 6 -45 12 -51 18 -18 74 5 114 47 71 74 84 134 40 187 l-27 32 -84
-6 c-70 -4 -82 -3 -71 8 8 8 30 18 49 22 47 12 46 37 -1 41 -24 2 -43 -4 -62
-18z"/>
<path d="M2119 1637 c-94 -49 -125 -69 -127 -85 -4 -23 12 -28 37 -13 36 23
144 -41 140 -84 -2 -35 0 -41 20 -42 24 -2 32 21 61 165 11 57 22 108 26 113
14 24 -44 3 -157 -54z"/>
<path d="M2368 1563 c-65 -91 -99 -151 -105 -186 -10 -66 15 -48 64 45 45 86
48 89 50 57 4 -54 25 -182 34 -206 14 -37 34 -27 60 29 13 29 40 77 59 108 43
66 65 118 56 128 -8 7 -101 -87 -123 -123 -11 -18 -12 -16 -12 18 -1 50 -30
177 -41 177 -5 0 -24 -21 -42 -47z"/>
<path d="M5166 1579 c-46 -54 -44 -105 8 -162 31 -36 56 -85 50 -101 -10 -25
31 -38 68 -22 58 24 91 69 96 130 4 48 2 55 -19 66 -15 8 -43 10 -82 6 -56 -6
-87 3 -87 24 0 4 22 10 49 14 52 7 71 27 50 52 -15 18 -57 18 -91 0 -29 -15
-37 -9 -16 12 7 7 9 12 6 12 -3 0 -18 -14 -32 -31z"/>
<path d="M5050 1505 c-1 -22 -4 -34 -7 -27 -2 6 -14 12 -25 12 -19 0 -20 -4
-15 -62 5 -68 30 -151 47 -156 14 -5 13 -32 -2 -32 -6 0 -9 -3 -6 -6 14 -14
47 18 51 49 l4 32 1 -32 c3 -60 -83 -94 -134 -52 -13 11 -45 73 -78 153 -15
37 -18 39 -33 23 -15 -14 -15 -23 -4 -74 16 -71 55 -170 78 -195 23 -25 52
-23 104 10 58 37 97 84 105 127 5 27 -1 49 -30 108 -20 40 -40 93 -45 117 l-9
45 -2 -40z"/>
<path d="M2652 1413 c-75 -37 -115 -139 -85 -216 18 -44 59 -76 108 -84 29 -5
44 1 91 33 30 21 58 43 62 49 3 5 -2 4 -12 -4 -15 -13 -14 -8 4 28 17 32 21
53 18 92 -6 55 -27 85 -75 105 -42 18 -70 17 -111 -3z m7 -42 c-33 -33 -37
-51 -11 -46 33 5 90 -33 103 -70 11 -28 17 -34 34 -30 18 6 18 4 -4 -14 -54
-48 -153 -9 -167 65 -7 41 10 89 40 109 34 24 37 17 5 -14z"/>
<path d="M2906 1347 c-22 -23 -22 -32 -10 -202 8 -102 12 -120 27 -123 10 -2
20 4 24 15 10 26 50 79 115 152 32 35 58 71 58 79 0 18 -116 -82 -146 -126
l-22 -31 -7 124 c-4 69 -10 127 -14 128 -3 2 -15 -5 -25 -16z"/>
<path d="M4633 1335 c-57 -24 -73 -49 -73 -111 0 -55 22 -120 63 -191 16 -29
21 -31 42 -21 28 13 39 39 31 74 -8 32 4 30 39 -6 16 -16 33 -30 38 -30 5 0
22 14 39 31 l31 31 -29 23 c-61 48 -79 66 -68 71 28 12 44 31 48 59 2 17 1 23
-1 15 -7 -21 -34 -50 -58 -62 -14 -7 -12 -2 7 14 35 31 44 63 24 93 -13 20
-25 25 -59 25 -23 -1 -56 -7 -74 -15z"/>
<path d="M3191 1237 c-52 -19 -91 -74 -100 -143 -9 -65 -2 -96 32 -133 34 -37
73 -50 117 -39 39 10 110 62 110 80 0 6 -8 5 -17 -4 -41 -35 -44 -28 -4 8 38
35 44 46 48 89 9 105 -87 178 -186 142z m135 -48 c44 -41 41 -122 -6 -164 -16
-15 -118 -30 -104 -16 2 2 -9 12 -25 22 -31 19 -48 72 -29 92 21 24 76 7 108
-31 17 -20 30 -42 30 -49 0 -23 19 -14 35 17 36 69 -22 158 -94 146 -26 -4
-32 -3 -21 5 22 15 80 3 106 -22z"/>
</g>
</svg>
